<?xml version="1.0" encoding="UTF-8"?>
<svg id="Layer_1" data-name="Layer 1" xmlns="http://www.w3.org/2000/svg" viewBox="0 0 429 109.61">
  <defs>
    <style>
      .cls-1 {
        fill: #e63b95;
        stroke: #ed1d7c;
        stroke-miterlimit: 10;
      }
    </style>
  </defs>
  <path class="cls-1" d="m395.56,66.21c-1.72-1.09-3.89-1.57-5.86-1.6-6.61-.09-13.22.2-19.83.25-7.27.06-9.64-1.95-11.93-10.28-.94-3.41-1.47-6.98-2.32-10.43-1.34-5.49-3.26-6.79-7.93-5.53-6.13,1.65-12.25,3.4-18.39,5-1.84.48-3.73.76-5.61.82-2.93.1-4.98,1.8-6.21,4.79-1.53,3.71-4.17,4.59-7.1,4.04-4.18-.78-7.6-.25-9.82,4.78-1.03,2.34-3.04,3.49-5.22,3.07-5.58-1.09-11.2-2.06-16.65-3.79-3.52-1.12-4.66-4.91-4.64-9.23.02-4.4-1.81-7.18-5.3-8.53-3.58-1.39-6.4-.11-7.8,4.33-1.28,4.05-3.72,5.05-6.81,5.15-1.18.04-2.36-.1-3.54-.17-1.74-.1-3.08.47-4.29,2.24-3.31,4.85-7.34,5.06-10.09-.24-4.5-8.66-11.02-14.35-17.69-20.08-3.59-3.09-7.2-5.29-11.74-4.56-2.95.47-5.35-.97-7.46-3.38-5.65-6.46-11.34-12.88-17.01-19.33-3.79-4.32-6.73-3.9-10.57.36-6.48,7.19-9.62,16.72-13.31,25.9-.48,1.19-.83,2.47-1.37,3.62-2.03,4.26-5.73,5.54-9.33,3.29-.84-.52-1.63-1.15-2.45-1.71-4.4-3.06-7.71-2.71-10.81,2.06-5.21,8.01-12.47,12.24-19.68,16.69-2.31,1.43-4.22.35-6.16-1.11-3.16-2.37-4.07-2.23-6.83.8-.47.51-.92,1.04-1.38,1.55-2.88,3.18-4.38,3.47-7.87,1.54-3.57-1.97-4.36-1.73-6.7,2.06-3.14,5.07-7.1,5.69-10.1.63-3.34-5.63-7.06-5.68-12.07-4.32-7.49,2.04-15.15,3.36-22.8,4.28-2.2.26-4.89-1.43-6.86-3.09-2.97-2.52-5.69-2.48-8.84-.91-2.75,1.37-5.6,2.64-8.5,3.34-1.9.46-3.99-.1-5.97-.36-.76-.1-1.47-.65-2.21-.98-2.64-1.15-5.14-3.51-8-2.22v54.14h428v-21.25c-2.99-1.92-5.99-3.82-8.96-5.79-7.99-5.29-15.92-10.73-23.98-15.86Z"/>
</svg>